<?xml version="1.0" encoding="UTF-8" standalone="no"?>
<svg id="SouthCentralKY" xmlns="http://www.w3.org/2000/svg" viewBox="0 0 335.28 62.22">
			<defs><style>.cls-1{fill:#e7a614;}.cls-2{fill:#fff;}</style></defs>
			<title>EPS_CS6_SouthCentralKY_horiz_RGBrev</title>
			<path id="State" class="cls-1" d="M136.75,38.55a4.7,4.7,0,0,0,0-.65,3.59,3.59,0,0,0-.13-.52,1.55,1.55,0,0,0-.51-.79,9.8,9.8,0,0,1-.68-.88c-.44-.59-.87-1.18-1.34-1.74l-5.68-6.68a4.61,4.61,0,0,1-.9-3.31l.9-5.44a4.07,4.07,0,0,0-1-3.2l-4.88-4.81a2.18,2.18,0,0,0-2.79-.17l-1.28,1a7,7,0,0,1-3.28,1.26h-.06a3.23,3.23,0,0,1-2.75-1.52l-.09-.16a3.19,3.19,0,0,0-2.49-1.58,2.1,2.1,0,0,0-1.89,1.44A1.45,1.45,0,0,1,106.32,12,1.89,1.89,0,0,1,105,10.3a2.2,2.2,0,0,0-2-1.66l-3.63-.45c-1-.12-4.56-.92-4.88-1.92l-1-3.1a3.1,3.1,0,0,0-.94-1.35,2.79,2.79,0,0,0-1-.68,5,5,0,0,0-1.48.15,5.67,5.67,0,0,1-1.54,0C88,1.15,87.46,1.1,86.93,1a6.07,6.07,0,0,1-1-.51c-1-.48-2,.51-2.14,1.53,0,0-.38,4.26-.38,4.26-.09,1-2.11,2.88-3,3.38l-2,1.64c-.88.49-2.71-1.63-3.71-1.69L73.43,9.5a2,2,0,0,0-2.06,1.78l-.14,1c-.13,1,.07,3.38-.7,4L69.8,17a9.57,9.57,0,0,0-2,2.37c-.31.64,0,1.4-.13,1.68-.29.86-.17,1.37-.85,1.63l-.3.08a8.7,8.7,0,0,0-2.48,1,2.4,2.4,0,0,0-.61.43,2.48,2.48,0,0,0-.43.67c-.52,1.08-.86,3.61-2.18,4a2.81,2.81,0,0,1-1.44,0,6.12,6.12,0,0,1-2.76-1.44,4.92,4.92,0,0,0-1.25-1,2.43,2.43,0,0,0-2.63.75,7.28,7.28,0,0,0-1.33,2.56c-.26.72-.77,2.61-1.74,2.54a3.64,3.64,0,0,1-2.75-1.66,3.52,3.52,0,0,0-.71-1,1.67,1.67,0,0,0-1.36-.27,4.27,4.27,0,0,0-1.31.58A5.07,5.07,0,0,0,41,32.61c-.53,2-1.9,1.32-3.3.4a21.18,21.18,0,0,0-2.85-1.87,3.3,3.3,0,0,0-3.25.11c-.54.4-.92,1.06-1.56,1.23-.82.23-1.59-.42-2.36-.78a3.79,3.79,0,0,0-2.63-.23c-1.12.31-1.17,2.2-2.2,2.88-.57.39-1.21.67-1.75,1.1a2.22,2.22,0,0,0-.92,1.76,2.76,2.76,0,0,0,.24.85,16.55,16.55,0,0,1,1,2.62c.13.66-.27.79-.84,1.08a12.8,12.8,0,0,1-3.3,1.15c-1.39.32-3.9,0-4.42,1.73a10.17,10.17,0,0,0-.48,1.88A3.43,3.43,0,0,0,12.64,48c.29.71.83,1.32,1.06,2A2.26,2.26,0,0,1,13,52.43a1.67,1.67,0,0,1-1.84.26l-4-1.41a2.81,2.81,0,0,0-2,.51l-3,2.74A5.74,5.74,0,0,0,1,57.23C.73,58.13.65,59.09.35,60c-.22.68-.78,2.47.26,2.58H56c0-.44-.07-.9-.07-1.36a14.31,14.31,0,0,1,28.61,0c0,.46,0,.92-.06,1.36h29.4A4.83,4.83,0,0,0,117,61.18l9-10a32.55,32.55,0,0,1,2.7-2.55l4.25-3.46c.79-.65,2.24-1.87,2.35-2.91,0-.13.25-.36.31-.46a5.37,5.37,0,0,0,.74-1.11c0-.2,0-.41.08-.61s.09-.31.14-.45.2-.31.23-.47A3.64,3.64,0,0,0,136.75,38.55Z" transform="translate(0 -0.35)"></path>
			<path id="Rays" class="cls-2" d="M87.37,56.5l20.49-10-22,6.57,38.92-27.82L83.65,50.06l33.22-34.71-36,32.21L93.23,22.89l-15.6,22.8L89.13,3.85,74.07,44.53l2-29-5.7,28.57L66.57,25.72l.06,18.81L60.26,31.36l2.82,14.33L53,32.5l6.81,15.06L44,32l13,18.09L30.94,32.49l23.92,20.6L30.29,44.22,53.34,56.5,14,48.73,52.67,59.56l-46.86-3,46.61,6H56c0-.44-.07-.9-.07-1.36a14.31,14.31,0,0,1,28.61,0c0,.46,0,.92-.06,1.36h4.21l28.55-4-29,1,33.09-8Z" transform="translate(0 -0.35)"></path>
			<path class="cls-2" d="M145.94,18.19,147.17,16a.68.68,0,0,1,.89-.16,7.83,7.83,0,0,0,3.72,1.44,1.63,1.63,0,0,0,1.8-1.57c0-1.1-.91-1.94-2.69-2.64-2.26-.9-5.08-2.65-5.08-5.79,0-2.6,2-5.22,6.05-5.22a9.68,9.68,0,0,1,5.6,2c.32.18.26.65.16.84l-1.34,2c-.18.29-.65.53-.89.34s-2.15-1.57-3.74-1.57A1.52,1.52,0,0,0,150,7c0,1,.78,1.7,2.85,2.54s5.29,2.41,5.29,6c0,2.7-2.33,5.42-6.18,5.42a8.33,8.33,0,0,1-5.89-2C145.81,18.66,145.73,18.56,145.94,18.19Z" transform="translate(0 -0.35)"></path>
			<path class="cls-2" d="M168.36,2.08a9.43,9.43,0,1,1-9.4,9.46A9.41,9.41,0,0,1,168.36,2.08Zm0,14.67a5.24,5.24,0,1,0-5.21-5.21A5.25,5.25,0,0,0,168.36,16.75Z" transform="translate(0 -0.35)"></path>
			<path class="cls-2" d="M179.65,2.84a.51.51,0,0,1,.5-.49h3.22a.49.49,0,0,1,.5.49V13.45a3.25,3.25,0,1,0,6.49,0V2.84a.49.49,0,0,1,.5-.49h3.22a.51.51,0,0,1,.5.49V13.66a7.47,7.47,0,0,1-14.93,0Z" transform="translate(0 -0.35)"></path>
			<path class="cls-2" d="M200.11,6.2h-3.75a.5.5,0,0,1-.5-.5V2.84a.49.49,0,0,1,.5-.49H208a.49.49,0,0,1,.5.49V5.7a.5.5,0,0,1-.5.5h-3.74v14a.52.52,0,0,1-.5.5h-3.14a.51.51,0,0,1-.5-.5Z" transform="translate(0 -0.35)"></path>
			<path class="cls-2" d="M210.06,2.84a.51.51,0,0,1,.5-.49h3.12a.49.49,0,0,1,.5.49v6.6h7.49V2.84a.49.49,0,0,1,.49-.49h3.12a.51.51,0,0,1,.5.49V20.18a.52.52,0,0,1-.5.5h-3.12a.5.5,0,0,1-.49-.5V13.29h-7.49v6.89a.5.5,0,0,1-.5.5h-3.12a.52.52,0,0,1-.5-.5Z" transform="translate(0 -0.35)"></path>
			<path class="cls-2" d="M237.36,2.08a8.83,8.83,0,0,1,6.34,2.44.49.49,0,0,1,0,.73l-2,2.13a.47.47,0,0,1-.66,0A5.3,5.3,0,0,0,237.49,6a5.22,5.22,0,0,0-5.14,5.4,5.19,5.19,0,0,0,5.16,5.31A5.47,5.47,0,0,0,241,15.49a.54.54,0,0,1,.69,0l2,2.17a.52.52,0,0,1,0,.71,9,9,0,0,1-6.36,2.54,9.43,9.43,0,1,1,0-18.86Z" transform="translate(0 -0.35)"></path>
			<path class="cls-2" d="M245.82,2.84a.49.49,0,0,1,.5-.49h10.84a.49.49,0,0,1,.5.49V5.7a.5.5,0,0,1-.5.5H249.9V9.44h6a.51.51,0,0,1,.49.5V12.8a.48.48,0,0,1-.49.49h-6v3.54h7.26a.5.5,0,0,1,.5.5v2.85a.5.5,0,0,1-.5.5H246.32a.5.5,0,0,1-.5-.5Z" transform="translate(0 -0.35)"></path>
			<path class="cls-2" d="M260.1,2.56a.49.49,0,0,1,.49-.48h.66L271.7,12.14h0V2.84a.49.49,0,0,1,.5-.49h3.15a.5.5,0,0,1,.49.49V20.47a.49.49,0,0,1-.49.47H275a.78.78,0,0,1-.34-.13l-10.35-10.4h0v9.77a.5.5,0,0,1-.49.5h-3.12a.52.52,0,0,1-.5-.5Z" transform="translate(0 -0.35)"></path>
			<path class="cls-2" d="M281.68,6.2h-3.75a.5.5,0,0,1-.49-.5V2.84a.49.49,0,0,1,.49-.49h11.63a.49.49,0,0,1,.5.49V5.7a.5.5,0,0,1-.5.5h-3.74v14a.52.52,0,0,1-.5.5h-3.14a.52.52,0,0,1-.5-.5Z" transform="translate(0 -0.35)"></path>
			<path class="cls-2" d="M291.63,2.84a.49.49,0,0,1,.5-.49H300A5.69,5.69,0,0,1,305.67,8a5.75,5.75,0,0,1-3.87,5.27l3.59,6.65a.5.5,0,0,1-.45.76h-3.48a.47.47,0,0,1-.42-.24l-3.49-6.94h-1.8v6.68a.52.52,0,0,1-.5.5h-3.12a.5.5,0,0,1-.5-.5Zm8,7.34a2.1,2.1,0,0,0,2-2.1,2,2,0,0,0-2-2h-3.87v4.09Z" transform="translate(0 -0.35)"></path>
			<path class="cls-2" d="M305.78,20,314,2.37a.55.55,0,0,1,.44-.29h.27a.55.55,0,0,1,.44.29L323.33,20a.46.46,0,0,1-.45.68H320c-.47,0-.68-.16-.92-.65L318.12,18H311l-.94,2.09a1,1,0,0,1-.94.63h-2.88A.46.46,0,0,1,305.78,20Zm10.77-5.61-2-4.32h0l-2,4.32Z" transform="translate(0 -0.35)"></path>
			<path class="cls-2" d="M324.43,2.84a.49.49,0,0,1,.5-.49h3.12a.5.5,0,0,1,.49.49v14h6.24a.5.5,0,0,1,.5.5v2.85a.5.5,0,0,1-.5.5h-9.85a.5.5,0,0,1-.5-.5Z" transform="translate(0 -0.35)"></path>
			<path class="cls-2" d="M145.81,25.67a.62.62,0,0,1,.62-.63h3.07a.64.64,0,0,1,.63.63v6.89l5.81-7.26a.79.79,0,0,1,.5-.26h3.3a.6.6,0,0,1,.47,1l-6.13,7.67,6.68,8.7a.62.62,0,0,1-.5,1h-3.61a.71.71,0,0,1-.47-.19l-6.05-8.22v7.81a.63.63,0,0,1-.63.62h-3.07a.61.61,0,0,1-.62-.62Z" transform="translate(0 -0.35)"></path>
			<path class="cls-2" d="M163.44,25.54a.49.49,0,0,1,.49-.5h10.85a.5.5,0,0,1,.49.5v2.85a.5.5,0,0,1-.49.5h-7.26v3.25h6a.51.51,0,0,1,.5.5v2.85a.5.5,0,0,1-.5.5h-6v3.53h7.26a.5.5,0,0,1,.49.5v2.86a.49.49,0,0,1-.49.49H163.93a.48.48,0,0,1-.49-.49Z" transform="translate(0 -0.35)"></path>
			<path class="cls-2" d="M178.76,25.25a.5.5,0,0,1,.5-.47h.65l10.45,10.06h0v-9.3a.5.5,0,0,1,.5-.5H194a.52.52,0,0,1,.5.5V43.16a.5.5,0,0,1-.5.48h-.42a.78.78,0,0,1-.34-.13l-10.35-10.4h0v9.77a.49.49,0,0,1-.5.49h-3.12a.5.5,0,0,1-.49-.49Z" transform="translate(0 -0.35)"></path>
			<path class="cls-2" d="M201.39,28.89h-3.74a.5.5,0,0,1-.5-.5V25.54a.5.5,0,0,1,.5-.5h11.63a.5.5,0,0,1,.49.5v2.85a.5.5,0,0,1-.49.5h-3.75v14a.51.51,0,0,1-.5.49h-3.14a.51.51,0,0,1-.5-.49Z" transform="translate(0 -0.35)"></path>
			<path class="cls-2" d="M212.13,25.54a.52.52,0,0,1,.5-.5h3.22a.5.5,0,0,1,.5.5V36.15a3.25,3.25,0,1,0,6.49,0V25.54a.5.5,0,0,1,.5-.5h3.22a.51.51,0,0,1,.5.5V36.36a7.47,7.47,0,0,1-14.93,0Z" transform="translate(0 -0.35)"></path>
			<path class="cls-2" d="M239.4,24.78a8.81,8.81,0,0,1,6.34,2.43.49.49,0,0,1,0,.74l-2.05,2.12a.46.46,0,0,1-.65,0,5.33,5.33,0,0,0-3.54-1.34,5.36,5.36,0,0,0,0,10.72,5.55,5.55,0,0,0,3.51-1.26.52.52,0,0,1,.68,0l2,2.18a.52.52,0,0,1,0,.71,9.06,9.06,0,0,1-6.37,2.54,9.43,9.43,0,1,1,0-18.86Z" transform="translate(0 -0.35)"></path>
			<path class="cls-2" d="M248.91,25.67a.62.62,0,0,1,.63-.63h3.06a.64.64,0,0,1,.63.63v6.89l5.82-7.26a.77.77,0,0,1,.49-.26h3.3a.61.61,0,0,1,.48,1l-6.13,7.67,6.68,8.7a.62.62,0,0,1-.5,1h-3.62a.71.71,0,0,1-.47-.19l-6-8.22v7.81a.63.63,0,0,1-.63.62h-3.06a.61.61,0,0,1-.63-.62Z" transform="translate(0 -0.35)"></path>
			<path class="cls-2" d="M270.05,34.55l-5.79-8.75a.49.49,0,0,1,.42-.76h3.4a.5.5,0,0,1,.42.24l3.64,5.37,3.65-5.37a.45.45,0,0,1,.41-.24h3.41a.49.49,0,0,1,.42.76l-5.87,8.72v8.36a.51.51,0,0,1-.5.49h-3.11a.49.49,0,0,1-.5-.49Z" transform="translate(0 -0.35)"></path>
			<path class="cls-2" d="M148.85,48.05a2.78,2.78,0,0,1,2,.81.16.16,0,0,1,0,.24l-.51.55a.13.13,0,0,1-.21,0,2,2,0,0,0-1.3-.51,2,2,0,0,0,0,4,2,2,0,0,0,1.29-.5.15.15,0,0,1,.21,0l.52.56a.16.16,0,0,1,0,.23,2.81,2.81,0,0,1-2,.85,3.13,3.13,0,0,1,0-6.26Z" transform="translate(0 -0.35)"></path>
			<path class="cls-2" d="M154.4,48.05a3.13,3.13,0,0,1,0,6.26,3.13,3.13,0,0,1,0-6.26Zm0,5.13a2,2,0,1,0-1.93-2A2,2,0,0,0,154.4,53.18Z" transform="translate(0 -0.35)"></path>
			<path class="cls-2" d="M159.05,48.18a.14.14,0,0,1,.15-.13h.14a.15.15,0,0,1,.14.09l1.86,4.1h0l1.85-4.1a.16.16,0,0,1,.15-.09h.13a.14.14,0,0,1,.15.13l1,5.84a.16.16,0,0,1-.15.2h-.77a.18.18,0,0,1-.16-.13l-.5-3.29h0l-1.48,3.41a.14.14,0,0,1-.14.1h-.15a.14.14,0,0,1-.14-.1l-1.5-3.41h0l-.49,3.29a.17.17,0,0,1-.15.13h-.76a.16.16,0,0,1-.16-.2Z" transform="translate(0 -0.35)"></path>
			<path class="cls-2" d="M166.38,48.18a.14.14,0,0,1,.15-.13h.14a.15.15,0,0,1,.14.09l1.86,4.1h0l1.85-4.1a.16.16,0,0,1,.15-.09h.13a.14.14,0,0,1,.15.13L172,54a.16.16,0,0,1-.15.2h-.77a.18.18,0,0,1-.16-.13l-.5-3.29h0l-1.48,3.41a.14.14,0,0,1-.14.1h-.15a.14.14,0,0,1-.14-.1L167,50.8h0l-.49,3.29a.17.17,0,0,1-.15.13h-.76a.16.16,0,0,1-.16-.2Z" transform="translate(0 -0.35)"></path>
			<path class="cls-2" d="M172.92,48.3a.17.17,0,0,1,.16-.16h.8a.16.16,0,0,1,.16.16v3.56a1.23,1.23,0,1,0,2.45,0V48.3a.16.16,0,0,1,.16-.16h.8a.16.16,0,0,1,.16.16v3.62a2.35,2.35,0,1,1-4.69,0Z" transform="translate(0 -0.35)"></path>
			<path class="cls-2" d="M179,48.21a.16.16,0,0,1,.16-.16h.21l3.51,3.84h0V48.3a.16.16,0,0,1,.16-.16h.77a.17.17,0,0,1,.16.16v5.85a.16.16,0,0,1-.16.16h-.2l-3.52-4h0v3.74a.16.16,0,0,1-.16.16h-.77a.17.17,0,0,1-.16-.16Z" transform="translate(0 -0.35)"></path>
			<path class="cls-2" d="M185.48,48.3a.16.16,0,0,1,.16-.16h.78a.17.17,0,0,1,.16.16v5.76a.17.17,0,0,1-.16.16h-.78a.16.16,0,0,1-.16-.16Z" transform="translate(0 -0.35)"></path>
			<path class="cls-2" d="M188.81,49.18h-1.29a.16.16,0,0,1-.16-.16V48.3a.16.16,0,0,1,.16-.16h3.68a.16.16,0,0,1,.16.16V49a.16.16,0,0,1-.16.16h-1.29v4.88a.17.17,0,0,1-.16.16H189a.16.16,0,0,1-.16-.16Z" transform="translate(0 -0.35)"></path>
			<path class="cls-2" d="M193.67,51.29l-1.92-2.9a.16.16,0,0,1,.14-.25h.86a.15.15,0,0,1,.13.08l1.35,2,1.35-2a.14.14,0,0,1,.13-.08h.87a.16.16,0,0,1,.13.25l-1.94,2.89v2.78a.17.17,0,0,1-.16.16h-.78a.16.16,0,0,1-.16-.16Z" transform="translate(0 -0.35)"></path>
			<path class="cls-2" d="M147.25,59h0l-.17-.2a1.79,1.79,0,0,1-.58-1.25,1.61,1.61,0,0,1,3.19,0c0,.9-.86,1.43-1,1.59l1,1a4.14,4.14,0,0,0,.3-1c0-.18.09-.28.28-.22l.46.14c.22.06.16.25.15.34a6.4,6.4,0,0,1-.53,1.38l.75.73c.1.1.19.2,0,.4l-.35.36a.24.24,0,0,1-.37,0l-.61-.64a2.35,2.35,0,0,1-1.83.74,1.66,1.66,0,0,1-1.78-1.63A2.07,2.07,0,0,1,147.25,59Zm.73,2.45a1.34,1.34,0,0,0,1.08-.51l-1.25-1.37a1.25,1.25,0,0,0-.72,1.07A.83.83,0,0,0,148,61.48Zm.8-3.85a.69.69,0,0,0-.72-.66.59.59,0,0,0-.62.6c0,.3.18.5.44.78l.18.19C148.19,58.46,148.78,58.17,148.78,57.63Z" transform="translate(0 -0.35)"></path>
			<path class="cls-2" d="M154.25,57.29H153a.16.16,0,0,1-.16-.17v-.71a.15.15,0,0,1,.16-.16h3.68a.16.16,0,0,1,.16.16v.71a.17.17,0,0,1-.16.17h-1.29v4.87a.17.17,0,0,1-.16.17h-.79a.17.17,0,0,1-.16-.17Z" transform="translate(0 -0.35)"></path>
			<path class="cls-2" d="M157.44,56.41a.16.16,0,0,1,.16-.16H161a.16.16,0,0,1,.16.16v.71a.17.17,0,0,1-.16.17h-2.49v1.42h2.08a.17.17,0,0,1,.16.17v.72a.16.16,0,0,1-.16.16h-2.08v1.52H161a.17.17,0,0,1,.16.17v.71a.17.17,0,0,1-.16.17H157.6a.17.17,0,0,1-.16-.17Z" transform="translate(0 -0.35)"></path>
			<path class="cls-2" d="M164.74,56.16a2.82,2.82,0,0,1,2,.81.17.17,0,0,1,0,.24l-.52.55a.13.13,0,0,1-.21,0,2,2,0,1,0,0,3,.15.15,0,0,1,.21,0l.52.56a.17.17,0,0,1,0,.23,2.87,2.87,0,0,1-2,.84,3.13,3.13,0,0,1,0-6.25Z" transform="translate(0 -0.35)"></path>
			<path class="cls-2" d="M167.65,56.41a.16.16,0,0,1,.16-.16h.78a.16.16,0,0,1,.16.16v2.3h2.75v-2.3a.15.15,0,0,1,.16-.16h.77a.16.16,0,0,1,.16.16v5.75a.17.17,0,0,1-.16.17h-.77a.16.16,0,0,1-.16-.17v-2.4h-2.75v2.4a.17.17,0,0,1-.16.17h-.78a.17.17,0,0,1-.16-.17Z" transform="translate(0 -0.35)"></path>
			<path class="cls-2" d="M173.91,56.31a.16.16,0,0,1,.16-.15h.22l3.5,3.84h0V56.41a.15.15,0,0,1,.16-.16h.77a.16.16,0,0,1,.16.16v5.85a.16.16,0,0,1-.16.15h-.2l-3.52-4h0v3.73a.17.17,0,0,1-.16.17h-.77a.17.17,0,0,1-.16-.17Z" transform="translate(0 -0.35)"></path>
			<path class="cls-2" d="M180.21,56.41a.16.16,0,0,1,.16-.16h.79a.16.16,0,0,1,.16.16v5.75a.17.17,0,0,1-.16.17h-.79a.17.17,0,0,1-.16-.17Z" transform="translate(0 -0.35)"></path>
			<path class="cls-2" d="M185.27,56.16a2.78,2.78,0,0,1,2,.81.16.16,0,0,1,0,.24l-.51.55a.13.13,0,0,1-.21,0,2,2,0,0,0-1.3-.52,2,2,0,0,0,0,4,2,2,0,0,0,1.29-.5.15.15,0,0,1,.21,0l.52.56a.16.16,0,0,1,0,.23,2.83,2.83,0,0,1-2,.84,3.13,3.13,0,0,1,0-6.25Z" transform="translate(0 -0.35)"></path>
			<path class="cls-2" d="M187.6,62.1l2.62-5.85a.15.15,0,0,1,.14-.09h.09a.15.15,0,0,1,.14.09l2.59,5.85a.15.15,0,0,1-.14.23h-.73c-.13,0-.19-.06-.25-.18l-.41-.94h-2.52l-.41.94a.25.25,0,0,1-.24.18h-.74A.16.16,0,0,1,187.6,62.1Zm3.64-1.85-.84-1.91h0l-.83,1.91Z" transform="translate(0 -0.35)"></path>
			<path class="cls-2" d="M193.78,56.41a.15.15,0,0,1,.16-.16h.77a.16.16,0,0,1,.16.16v4.87H197a.17.17,0,0,1,.16.17v.71a.17.17,0,0,1-.16.17h-3.08a.16.16,0,0,1-.16-.17Z" transform="translate(0 -0.35)"></path>
			<path class="cls-2" d="M206.59,48a6.83,6.83,0,0,1,4.9,1.88.37.37,0,0,1,0,.57l-1.58,1.64a.35.35,0,0,1-.5,0,4.15,4.15,0,0,0-2.74-1,4.15,4.15,0,0,0,0,8.29,4.29,4.29,0,0,0,2.72-1,.4.4,0,0,1,.52,0l1.58,1.68a.4.4,0,0,1,0,.55,7,7,0,0,1-4.92,2,7.3,7.3,0,1,1,0-14.59Z" transform="translate(0 -0.35)"></path>
			<path class="cls-2" d="M219.65,48a7.3,7.3,0,1,1-7.27,7.32A7.28,7.28,0,0,1,219.65,48Zm0,11.35a4.06,4.06,0,1,0-4-4A4.06,4.06,0,0,0,219.65,59.32Z" transform="translate(0 -0.35)"></path>
			<path class="cls-2" d="M229.22,48.56a.38.38,0,0,1,.39-.39H232a.4.4,0,0,1,.38.39V59.38h4.83a.38.38,0,0,1,.38.39V62a.38.38,0,0,1-.38.39h-7.62a.38.38,0,0,1-.39-.39Z" transform="translate(0 -0.35)"></path>
			<path class="cls-2" d="M239.21,48.56a.38.38,0,0,1,.39-.39H242a.4.4,0,0,1,.38.39V59.38h4.83a.38.38,0,0,1,.38.39V62a.38.38,0,0,1-.38.39H239.6a.38.38,0,0,1-.39-.39Z" transform="translate(0 -0.35)"></path>
			<path class="cls-2" d="M249.2,48.56a.38.38,0,0,1,.39-.39H258a.38.38,0,0,1,.38.39v2.21a.38.38,0,0,1-.38.38h-5.62v2.51H257a.4.4,0,0,1,.39.39v2.21a.38.38,0,0,1-.39.38h-4.62v2.74H258a.38.38,0,0,1,.38.39V62a.38.38,0,0,1-.38.39h-8.39a.38.38,0,0,1-.39-.39Z" transform="translate(0 -0.35)"></path>
			<path class="cls-2" d="M267.11,48a7.85,7.85,0,0,1,4.94,1.9.35.35,0,0,1,0,.55l-1.6,1.7a.41.41,0,0,1-.55,0,3.71,3.71,0,0,0-2.65-1,4.07,4.07,0,0,0,0,8.13,4.79,4.79,0,0,0,1.8-.32V57.82h-1.27a.37.37,0,0,1-.39-.37v-2a.38.38,0,0,1,.39-.39h4.07a.39.39,0,0,1,.37.39l0,5.45a.51.51,0,0,1-.17.33,10.24,10.24,0,0,1-5,1.31,7.28,7.28,0,1,1,0-14.55Z" transform="translate(0 -0.35)"></path>
			<path class="cls-2" d="M275,48.56a.38.38,0,0,1,.39-.39h8.39a.38.38,0,0,1,.38.39v2.21a.38.38,0,0,1-.38.38h-5.62v2.51h4.62a.4.4,0,0,1,.39.39v2.21a.38.38,0,0,1-.39.38h-4.62v2.74h5.62a.38.38,0,0,1,.38.39V62a.38.38,0,0,1-.38.39h-8.39A.38.38,0,0,1,275,62Z" transform="translate(0 -0.35)"></path>
		</svg>